<?xml version="1.0" encoding="utf-8"?>
<!-- Generator: Adobe Illustrator 30.1.0, SVG Export Plug-In . SVG Version: 9.03 Build 0)  -->
<svg version="1.1" id="レイヤー_1" xmlns="http://www.w3.org/2000/svg" xmlns:xlink="http://www.w3.org/1999/xlink" x="0px"
	 y="0px" viewBox="0 0 592.6 105.6" style="enable-background:new 0 0 592.6 105.6;" xml:space="preserve">
<style type="text/css">
	.st0{fill:#231815;}
</style>
<g>
	<g>
		<path class="st0" d="M117.9,67l0-27.6h17.8c5.1,0,9,1.2,11.7,3.5c2.7,2.4,4.1,5.8,4.1,10.1c0,2.6-0.5,4.9-1.6,7
			c-1.1,2.1-2.6,3.7-4.5,4.9c-1.2,0.7-2.7,1.3-4.5,1.6c-1.8,0.3-4.1,0.5-6.9,0.5H117.9z M124.3,61.7l8.3,0c4.4,0,7.6-0.7,9.4-2.1
			c1.9-1.4,2.8-3.6,2.8-6.8c0-2.8-0.8-5-2.3-6.4c-1.6-1.5-3.8-2.2-6.8-2.2h-11.4V61.7z"/>
		<path class="st0" d="M160.5,67V44.3h5.5l0,22.6H160.5z"/>
		<path class="st0" d="M186.1,67l-13.7-22.6h6.2l9.6,16.4l9-16.4h5.7L189.9,67H186.1z"/>
		<path class="st0" d="M515,67V44.3h24.3l0,4h-18.8l0,5h10.9v3.9h-10.9v5.6h19l0,4.2H515z"/>
		<path class="st0" d="M548.8,67V44.3l4.4,0l11.1,13.5l11-13.4l4.4,0l0,22.7h-5.1V51.4l-10.1,12.9l-1.1,0l-10.3-12.5V67H548.8z"/>
		<path class="st0" d="M209.7,67V44.3l24.3,0v4h-18.8v5h10.9v3.9h-10.9v5.6h19l0,4.2H209.7z"/>
		<path class="st0" d="M313.7,67V44.3l24.3,0v4h-18.8l0,5h10.9l0,3.9h-10.9v5.6h19l0,4.2H313.7z"/>
		<path class="st0" d="M358.3,30.6l0,44.4l-3.9,0V30.6H358.3z"/>
		<path class="st0" d="M424.5,67l0-10.2l-12.4-12.5l7.5,0l8.1,8.5l8.2-8.4l6.5,0L430,56.7V67H424.5z"/>
		<path class="st0" d="M496.9,48.4l0,18.6h-5.5V48.4h-11l0-4.1h27.4v4.1H496.9z"/>
		<path d="M263,58.4h-0.4c1.8,0,3.2-0.3,4-1c0.8-0.7,1.2-1.8,1.3-3.3v-5.4c0-1.5-0.4-2.6-1.3-3.3c-0.8-0.7-2.2-1-4-1h-20.4V67h5.4
			l0-8.6h0.6h4.6h4.1l5,8.6h6.2L263,58.4z M247.6,54.5l0-6.3h12.6c1,0,1.6,0.1,2,0.4c0.4,0.3,0.5,0.8,0.5,1.4l0,2.6
			c0,0.7-0.2,1.2-0.5,1.4c-0.4,0.3-1,0.4-2,0.4L247.6,54.5z"/>
		<path d="M297.3,53.1h-12.2c-1,0-1.6-0.1-2-0.4c-0.4-0.3-0.5-0.7-0.5-1.4l0-1c0-0.7,0.2-1.1,0.5-1.4c0.4-0.3,1-0.4,2-0.4h10.8
			c1,0,1.6,0.1,2,0.4c0.3,0.2,0.5,0.5,0.5,1h4.8v-0.5c0-1.8-0.4-3.1-1.3-3.8c-0.8-0.7-2.4-1.1-4.7-1.1h-13.7c-2.3,0-3.9,0.4-4.7,1.1
			c-0.8,0.8-1.2,2.2-1.2,4.2v2.5c0,2.1,0.4,3.5,1.2,4.2c0.8,0.8,2.4,1.1,4.7,1.1h12.1c1,0,1.6,0.2,2,0.4c0.4,0.3,0.5,0.8,0.5,1.4
			l0,1.5c0,0.7-0.2,1.1-0.5,1.4c-0.4,0.3-1,0.4-2,0.4h-10.6c-1,0-1.6-0.1-2-0.4c-0.3-0.3-0.5-0.7-0.5-1.3l-5,0v0.6
			c0,2,0.4,3.5,1.2,4.2c0.8,0.8,2.4,1.1,4.8,1.1h13.7c2.3,0,3.9-0.4,4.7-1.1c0.8-0.7,1.2-2.1,1.2-4.2l0-3.1c0-2.1-0.4-3.5-1.2-4.2
			C301.2,53.5,299.7,53.1,297.3,53.1z"/>
		<path d="M468,53.1h-12.2c-1,0-1.6-0.1-2-0.4c-0.3-0.3-0.5-0.7-0.5-1.4v-1c0-0.7,0.2-1.1,0.5-1.4c0.4-0.3,1-0.4,2-0.4h10.8
			c1,0,1.6,0.1,2,0.4c0.3,0.2,0.4,0.5,0.5,1h4.8v-0.5c0-1.8-0.4-3.1-1.3-3.8c-0.9-0.7-2.4-1.1-4.7-1.1h-13.7c-2.3,0-3.9,0.4-4.7,1.1
			c-0.8,0.8-1.2,2.2-1.2,4.2v2.5c0,2,0.4,3.5,1.2,4.2c0.8,0.8,2.4,1.1,4.7,1.1h12.1c1,0,1.6,0.1,2,0.4c0.4,0.3,0.5,0.8,0.5,1.4
			l0,1.5c0,0.7-0.2,1.1-0.5,1.4c-0.4,0.3-1,0.4-2,0.4h-10.6c-1,0-1.6-0.1-2-0.4c-0.3-0.3-0.5-0.7-0.5-1.3h-5v0.6
			c0,2.1,0.4,3.5,1.3,4.2c0.8,0.7,2.4,1.1,4.7,1.1H468c2.3,0,3.9-0.4,4.7-1.1c0.8-0.8,1.2-2.2,1.2-4.2l0-3.1c0-2.1-0.4-3.5-1.2-4.3
			C471.9,53.5,470.3,53.1,468,53.1z"/>
		<path d="M398.3,50.1h-14.9c-1.2,0-2-0.2-2.4-0.5c-0.4-0.3-0.7-0.9-0.7-1.7v-1.3c0-0.8,0.2-1.4,0.7-1.7c0.4-0.3,1.2-0.5,2.4-0.5
			h13.2c1.2,0,2,0.2,2.4,0.5c0.3,0.3,0.5,0.7,0.6,1.2h5.9l0-0.7c0-2.2-0.5-3.8-1.6-4.7c-1-0.9-3-1.3-5.8-1.3h-16.7
			c-2.8,0-4.7,0.5-5.7,1.4c-1,0.9-1.5,2.7-1.5,5.1l0,3.1c0,2.5,0.5,4.2,1.5,5.2c1,0.9,2.9,1.4,5.7,1.4h14.8c1.2,0,2,0.2,2.4,0.5
			c0.4,0.3,0.7,0.9,0.7,1.7l0,1.8c0,0.8-0.2,1.4-0.7,1.7c-0.4,0.3-1.2,0.5-2.4,0.5l-13,0c-1.2,0-2-0.2-2.4-0.5
			c-0.4-0.3-0.6-0.9-0.7-1.6l-6,0v0.8c0,2.5,0.5,4.2,1.5,5.2c1,0.9,2.9,1.4,5.8,1.4h16.7c2.8,0,4.7-0.5,5.7-1.4
			c1-0.9,1.5-2.6,1.5-5.1v-3.8c0-2.6-0.5-4.3-1.5-5.2C403,50.5,401.1,50.1,398.3,50.1z"/>
	</g>
	<g>
		<polygon points="53.6,95.5 57.4,95.5 57.4,64.4 53.6,64.4 		"/>
		<rect x="54.1" y="10.1" width="2.8" height="31.1"/>
		<polygon points="12.8,49.5 12.8,56.2 43.9,56.2 43.9,49.5 		"/>
		<polygon points="98.2,55.3 98.2,50.4 67.1,50.4 67.1,55.3 		"/>
		<rect x="20.8" y="69.8" transform="matrix(0.7063 -0.7079 0.7079 0.7063 -40.2889 46.8603)" width="31.1" height="4.4"/>
		<rect x="59.1" y="31" transform="matrix(0.7068 -0.7074 0.7074 0.7068 -1.8909 62.6943)" width="31.1" height="5.2"/>
		<rect x="35.5" y="18.1" transform="matrix(0.7077 -0.7065 0.7065 0.7077 -13.1451 35.4984)" width="1.6" height="31.1"/>
		<polygon points="84,84.7 87.4,81.3 65.4,59.3 62,62.6 		"/>
		<polygon points="70.7,92.7 73,91.8 61.1,63 58.8,63.9 		"/>
		<polygon points="41,12.6 37.4,14.1 49.3,42.9 52.9,41.4 		"/>
		<polygon points="15.8,68.5 16.3,69.8 45.1,57.9 44.6,56.6 		"/>
		<rect x="65" y="41" transform="matrix(0.9237 -0.3832 0.3832 0.9237 -10.1103 34.1075)" width="31.1" height="2.8"/>
		<polygon points="38.6,92 39.7,92.5 51.6,63.7 50.5,63.3 		"/>
		<polygon points="72.4,13.6 71.2,13.1 59.3,41.9 60.5,42.4 		"/>
		<polygon points="16.2,36.1 15.9,36.8 44.7,48.7 45,48 		"/>
		<rect x="80.1" y="47.6" transform="matrix(0.3824 -0.924 0.924 0.3824 -8.632 113.4688)" width="1" height="31.1"/>
	</g>
	<g>
		<path class="st0" d="M120.1,91.7l-3.2-7.8h2l2.1,5.5l2.2-5.5h1.3l2.2,5.5l2-5.5h1.7l-3.1,7.8h-1.3l-2.3-5.5l-2.3,5.5H120.1z"/>
		<path class="st0" d="M135.9,91.7v-7.8h8.4v1.4h-6.5v1.7h3.8v1.4h-3.8v1.9h6.6v1.5H135.9z"/>
		<path class="st0" d="M152.8,88.8c0.3,0,0.4,0.2,0.4,0.7v1.9l-1.8,2.7h-1.1l1.6-2.8h-1.1c-0.3,0-0.4-0.2-0.4-0.7v-1.1
			c0-0.3,0-0.5,0.1-0.6c0.1-0.1,0.3-0.1,0.6-0.1H152.8z"/>
		<path class="st0" d="M170.4,91.7v-7.8h1.9v7.8H170.4z"/>
		<path class="st0" d="M179.1,91.7v-7.8h1.3l6.6,5.2v-5.2h1.7v7.8h-1.3l-6.6-5.3v5.3H179.1z"/>
		<path class="st0" d="M205.9,85.7c0-0.7,0.1-1.2,0.4-1.5c0.3-0.2,0.8-0.4,1.6-0.4h6.1c0.8,0,1.3,0.1,1.6,0.4
			c0.3,0.2,0.4,0.7,0.4,1.5v4.1c0,0.7-0.1,1.2-0.4,1.5c-0.3,0.3-0.8,0.4-1.6,0.4H208c-0.8,0-1.3-0.1-1.6-0.4
			c-0.3-0.3-0.4-0.7-0.4-1.5V85.7z M207.8,90.2h6.3v-4.9h-6.3V90.2z"/>
		<path class="st0" d="M224.6,83.8v6.4h5.4v-6.4h1.9v6c0,0.7-0.1,1.2-0.4,1.5c-0.3,0.3-0.8,0.4-1.6,0.4h-5.2c-0.8,0-1.3-0.1-1.6-0.4
			c-0.3-0.3-0.4-0.7-0.4-1.5v-6H224.6z"/>
		<path class="st0" d="M264.6,91.7v-7.8h7c1.2,0,1.8,0.5,1.8,1.5v0.9c0,0.7-0.4,1.2-1.3,1.3c0.9,0.1,1.4,0.6,1.4,1.5v1
			c0,1-0.8,1.5-2.4,1.5H264.6z M270.7,85.1h-4.3V87h4.3c0.6,0,0.9-0.2,0.9-0.6v-0.7C271.6,85.3,271.3,85.1,270.7,85.1z M270.7,88.3
			h-4.3v2h4.3c0.3,0,0.5,0,0.7-0.1c0.2-0.1,0.3-0.3,0.3-0.6V89c0-0.3-0.1-0.5-0.3-0.6C271.3,88.3,271,88.3,270.7,88.3z"/>
		<path class="st0" d="M280,91.7v-7.8h8.4v1.4H282v1.7h3.8v1.4H282v1.9h6.6v1.5H280z"/>
		<path class="st0" d="M294.6,91.7v-7.8h1.9v6.4h6.1v1.5H294.6z"/>
		<path class="st0" d="M308.2,91.7v-7.8h1.9v7.8H308.2z"/>
		<path class="st0" d="M316.9,91.7v-7.8h8.4v1.4h-6.5v1.7h3.8v1.4h-3.8v1.9h6.6v1.5H316.9z"/>
		<path class="st0" d="M331.4,91.7v-7.8h8.3v1.4h-6.4v2h3.4v1.5h-3.4v2.9H331.4z"/>
		<path class="st0" d="M347.2,88.8c0.3,0,0.4,0.2,0.4,0.7v1.9l-1.8,2.7h-1.1l1.6-2.8h-1.1c-0.3,0-0.4-0.2-0.4-0.7v-1.1
			c0-0.3,0-0.5,0.1-0.6c0.1-0.1,0.3-0.1,0.6-0.1H347.2z"/>
		<path class="st0" d="M385,85.3v6.4h-1.9v-6.4h-3.8v-1.4h9.5v1.4H385z"/>
		<path class="st0" d="M393.4,91.7l4.6-7.8h1.8l4.7,7.8h-2.1l-1-1.7h-5.2l-1,1.7H393.4z M397.1,88.5h3.6l-1.8-3.3L397.1,88.5z"/>
		<path class="st0" d="M409.9,91.7v-7.8h1.3l6.6,5.2v-5.2h1.7v7.8h-1.3l-6.6-5.3v5.3H409.9z"/>
		<path class="st0" d="M426.4,91.7v-7.8h5.3c1.5,0,2.7,0.3,3.5,1c0.8,0.7,1.2,1.6,1.2,2.9c0,2.6-1.7,3.9-5.2,3.9H426.4z M428.3,90.2
			h2.5c1.3,0,2.2-0.2,2.7-0.5c0.6-0.4,0.9-1.1,0.9-2.1c0-1.6-0.9-2.4-2.7-2.4h-3.4V90.2z"/>
		<path class="st0" d="M453,91.7v-7.8h1.9v3h6v-3h1.9v7.8h-1.9v-3.3h-6v3.3H453z"/>
		<path class="st0" d="M469.6,91.7v-7.8h8.4v1.4h-6.5v1.7h3.8v1.4h-3.8v1.9h6.6v1.5H469.6z"/>
		<path class="st0" d="M499.5,91.7v-7.8h8.4v1.4h-6.5v1.7h3.8v1.4h-3.8v1.9h6.6v1.5H499.5z"/>
		<path class="st0" d="M516.4,88.8c0.3,0,0.4,0.2,0.4,0.7V91c0,0.3,0,0.5-0.1,0.6c-0.1,0.1-0.3,0.1-0.6,0.1h-1.6
			c-0.3,0-0.4-0.2-0.4-0.7v-1.5c0-0.3,0-0.5,0.1-0.6c0.1-0.1,0.3-0.1,0.6-0.1H516.4z"/>
		<path class="st0" d="M245.9,88.7l-0.1,0c0.7,0,1.1-0.1,1.4-0.4c0.3-0.2,0.4-0.6,0.4-1.1v-1.9c0-0.5-0.2-0.9-0.4-1.2
			c-0.3-0.2-0.8-0.4-1.4-0.4h-7v7.8h1.9l0-3l0.2,0l1.6,0h1.4l1.7,3l2.1,0L245.9,88.7z M240.6,87.4l0-2.2h4.4c0.3,0,0.6,0.1,0.7,0.1
			c0.1,0.1,0.2,0.3,0.2,0.5l0,0.9c0,0.2-0.1,0.4-0.2,0.5c-0.1,0.1-0.3,0.1-0.7,0.2L240.6,87.4z"/>
		<path class="st0" d="M491.4,88.7l-0.1,0c0.7,0,1.1-0.1,1.4-0.4c0.3-0.2,0.4-0.6,0.4-1.1v-1.9c0-0.5-0.2-0.9-0.4-1.2
			c-0.3-0.2-0.8-0.4-1.4-0.4h-7v7.8h1.9l0-3l0.2,0l1.6,0h1.4l1.7,3l2.1,0L491.4,88.7z M486.1,87.4l0-2.2h4.4c0.3,0,0.6,0.1,0.7,0.1
			c0.1,0.1,0.2,0.3,0.2,0.5l0,0.9c0,0.2-0.1,0.4-0.2,0.5c-0.1,0.1-0.3,0.1-0.7,0.2L486.1,87.4z"/>
		<path class="st0" d="M371.7,86.9h-4.2c-0.3,0-0.6,0-0.7-0.1c-0.1-0.1-0.2-0.3-0.2-0.5v-0.4c0-0.2,0.1-0.4,0.2-0.5
			c0.1-0.1,0.4-0.1,0.7-0.1h3.7c0.3,0,0.6,0,0.7,0.2c0.1,0.1,0.2,0.2,0.2,0.3h1.7v-0.2c0-0.6-0.1-1.1-0.4-1.3
			c-0.3-0.2-0.8-0.4-1.6-0.4h-4.7c-0.8,0-1.3,0.1-1.6,0.4c-0.3,0.3-0.4,0.8-0.4,1.5v0.9c0,0.7,0.1,1.2,0.4,1.5
			c0.3,0.3,0.8,0.4,1.6,0.4h4.2c0.3,0,0.6,0,0.7,0.1c0.1,0.1,0.2,0.3,0.2,0.5l0,0.5c0,0.2-0.1,0.4-0.2,0.5c-0.1,0.1-0.4,0.1-0.7,0.1
			h-3.7c-0.3,0-0.6,0-0.7-0.1c-0.1-0.1-0.2-0.2-0.2-0.5h-1.7v0.2c0,0.7,0.1,1.2,0.4,1.5c0.3,0.3,0.8,0.4,1.6,0.4h4.7
			c0.8,0,1.3-0.1,1.6-0.4c0.3-0.3,0.4-0.8,0.4-1.5l0-1.1c0-0.7-0.1-1.2-0.4-1.5C373,87,372.5,86.9,371.7,86.9z"/>
	</g>
</g>
</svg>
